<?xml version="1.0" standalone="no"?>
<svg width="96px" height="96px" viewBox="0 0 96 96" id="inner-dimension" version="1.1" xmlns="http://www.w3.org/2000/svg">
    <g>
        <path fill="#eee" stroke="#000" stroke-width="1px"
        	d="M70,21 L78,21 A12,16 0 1 1 78,53 L70,53
        		M74,26.25 A9,12 0 0 0 74,47.75" />
        <ellipse cx="70" cy="37" rx="12" ry="16" fill="#eee" stroke="#000" stroke-width="1px"/>
        <ellipse cx="70" cy="37" rx="9" ry="12" fill="#fff" stroke="#000" stroke-width="1px"/>
    </g>
    <g>
        <path fill="#ddd" stroke="#000" stroke-width="1px" stroke-linejoin="round" d="M40,96 40,32 L8,32 L40,20 L60,20
                L60,26 L70,26 Q70,32 60,32
                L60,96"/>
        <path fill="#aaa" stroke="#000" stroke-width="1px" stroke-linejoin="round" d="M44,68 L36,68 L36,54 L8,44 L44,44Z
                M56,68 L64,68 L64,48 L72,48 Q72,44 64,44 L56,44Z"/>
        <line stroke="#000" stroke-width="1px" stroke-linecap="round" x1="40" x2="50" y1="36" y2="36"/>
        <line stroke="#000" stroke-width="1px" stroke-linecap="round" x1="40" x2="46" y1="40" y2="40"/>
        <!-- SPACING -->
        <line stroke="#000" stroke-width="1px" stroke-linecap="round" x1="40" x2="50" y1="72" y2="72"/>
        <line stroke="#000" stroke-width="1px" stroke-linecap="round" x1="40" x2="50" y1="76" y2="76"/>
        <line stroke="#000" stroke-width="1px" stroke-linecap="round" x1="40" x2="46" y1="80" y2="80"/>
        <line stroke="#000" stroke-width="1px" stroke-linecap="round" x1="40" x2="50" y1="84" y2="84"/>
        <line stroke="#000" stroke-width="1px" stroke-linecap="round" x1="40" x2="46" y1="88" y2="88"/>
        <line stroke="#000" stroke-width="1px" stroke-linecap="round" x1="40" x2="50" y1="92" y2="92"/>
    </g>
</svg>
