<?xml version="1.0" standalone="no"?>
<svg width="96px" height="96px" viewBox="0 0 96 96" id="inner-dimension" version="1.1" xmlns="http://www.w3.org/2000/svg">
    <g>
        <circle cx="68" cy="43" r="24" fill="#eee" stroke="#000" stroke-width="1px"/>
        <circle cx="68" cy="43" r="19" fill="#fff" stroke="#000" stroke-width="1px"/>
    </g>
    <g>
        <path fill="#ddd" stroke="#000" stroke-width="1px" stroke-linejoin="round" d="M40,96 40,32 L8,32 L40,20 L60,20
                L60,26 L70,26 Q70,32 60,32
                L60,96"/>
        <path fill="#aaa" stroke="#000" stroke-width="1px" stroke-linejoin="round" d="M44,80 L36,80 L36,68 L8,56 L44,56Z
                M56,80 L64,80 L64,60 L72,60 Q72,56 64,56 L56,56Z"/>
        <line stroke="#000" stroke-width="1px" stroke-linecap="round" x1="40" x2="50" y1="36" y2="36"/>
        <line stroke="#000" stroke-width="1px" stroke-linecap="round" x1="40" x2="46" y1="40" y2="40"/>
        <line stroke="#000" stroke-width="1px" stroke-linecap="round" x1="40" x2="50" y1="44" y2="44"/>
        <line stroke="#000" stroke-width="1px" stroke-linecap="round" x1="40" x2="46" y1="48" y2="48"/>
        <line stroke="#000" stroke-width="1px" stroke-linecap="round" x1="40" x2="50" y1="52" y2="52"/>
        <!-- SPACING -->
        <line stroke="#000" stroke-width="1px" stroke-linecap="round" x1="40" x2="50" y1="84" y2="84"/>
        <line stroke="#000" stroke-width="1px" stroke-linecap="round" x1="40" x2="46" y1="88" y2="88"/>
        <line stroke="#000" stroke-width="1px" stroke-linecap="round" x1="40" x2="50" y1="92" y2="92"/>
    </g>
</svg>
