<?xml version="1.0" standalone="no"?>
<svg width="96px" height="96px" viewBox="0 0 96 96" id="inner-dimension" version="1.1" xmlns="http://www.w3.org/2000/svg">
    <rect x="0" y="0" width="96" height="96" fill="yellow"/>
    <g>
        <circle cx="32" cy="44" r="12" fill="#eee" stroke="#000" stroke-width="1px"/>
        <circle cx="32" cy="44" r="6" fill="#fff" stroke="#000" stroke-width="1px"/>
    </g>
    <g>
        <path fill="#ddd" stroke="#000" stroke-width="1px" stroke-linejoin="round" d="M48,96 48,32 L16,32 L48,20 L68,20
                L68,26 L78,26 Q78,32 68,32
                L68,96"/>
        <path fill="#aaa" stroke="#000" stroke-width="1px" stroke-linejoin="round" d="M52,80 L44,80 L44,68 L16,56 L52,56Z
                M64,80 L72,80 L72,60 L80,60 Q80,56 72,56 L64,56Z"/>
        <line stroke="#000" stroke-width="1px" stroke-linecap="round" x1="48" x2="58" y1="36" y2="36"/>
        <line stroke="#000" stroke-width="1px" stroke-linecap="round" x1="48" x2="54" y1="40" y2="40"/>
        <line stroke="#000" stroke-width="1px" stroke-linecap="round" x1="48" x2="58" y1="44" y2="44"/>
        <line stroke="#000" stroke-width="1px" stroke-linecap="round" x1="48" x2="54" y1="48" y2="48"/>
        <line stroke="#000" stroke-width="1px" stroke-linecap="round" x1="48" x2="58" y1="52" y2="52"/>
        <line stroke="#000" stroke-width="1px" stroke-linecap="round" x1="48" x2="58" y1="84" y2="84"/>
        <line stroke="#000" stroke-width="1px" stroke-linecap="round" x1="48" x2="54" y1="88" y2="88"/>
        <line stroke="#000" stroke-width="1px" stroke-linecap="round" x1="48" x2="58" y1="92" y2="92"/>
    </g>
</svg>
